<?xml version="1.0" standalone="no"?>
<!DOCTYPE svg PUBLIC "-//W3C//DTD SVG 20010904//EN"
 "http://www.w3.org/TR/2001/REC-SVG-20010904/DTD/svg10.dtd">
<svg version="1.0" xmlns="http://www.w3.org/2000/svg"
 width="764.000000pt" height="764.000000pt" viewBox="0 0 764.000000 764.000000"
 preserveAspectRatio="xMidYMid meet">
<metadata>
Created by potrace 1.14, written by Peter Selinger 2001-2017
</metadata>
<g transform="translate(0.000000,764.000000) scale(0.100000,-0.100000)"
fill="#000000" stroke="none">
<path d="M3827 5524 c-1 -1 -63 -5 -139 -8 -75 -4 -149 -9 -165 -11 -15 -2
-59 -6 -98 -10 -38 -3 -77 -8 -85 -10 -8 -2 -35 -7 -60 -10 -39 -5 -219 -40
-260 -50 -383 -95 -671 -245 -890 -465 -192 -192 -305 -394 -374 -662 l-32
-123 -110 -75 c-319 -217 -582 -449 -757 -667 -218 -272 -303 -528 -247 -747
26 -103 69 -177 150 -257 140 -139 345 -226 650 -278 63 -11 160 -23 215 -27
179 -14 635 -7 735 11 14 2 52 7 85 10 65 6 139 15 169 21 10 2 41 6 70 9 28
4 121 19 205 34 112 20 165 26 190 20 20 -5 63 -13 96 -19 33 -5 71 -12 85
-14 47 -9 95 -15 155 -21 33 -3 71 -8 85 -11 131 -23 815 -23 950 0 14 3 55 7
92 11 65 6 95 10 148 20 14 3 43 8 65 11 22 3 95 19 162 35 548 133 936 404
1147 800 47 88 90 192 111 269 6 25 15 54 18 65 7 20 4 21 -118 20 -69 -1
-125 1 -125 4 0 4 21 19 48 36 26 16 49 32 52 35 3 3 28 20 55 39 262 180 549
441 701 636 239 309 305 605 187 840 -55 109 -168 213 -310 284 -68 35 -207
87 -253 96 -8 2 -33 8 -55 13 -55 15 -130 28 -271 47 -181 25 -676 20 -867 -9
-60 -9 -172 -20 -187 -19 -8 1 -73 15 -145 32 -71 17 -148 33 -170 36 -22 3
-51 8 -65 10 -162 29 -405 46 -683 49 -87 0 -159 0 -160 0z m2113 -269 c132
-8 238 -19 294 -31 12 -3 46 -9 76 -15 156 -30 339 -113 428 -194 135 -123
165 -256 101 -449 -90 -268 -398 -600 -853 -920 -147 -102 -340 -225 -381
-241 -21 -8 -147 -11 -435 -11 l-405 1 -28 -44 c-143 -224 -421 -341 -792
-335 -111 2 -144 5 -245 25 -284 56 -498 241 -591 512 -15 45 -31 111 -36 147
-14 124 -5 309 18 352 5 10 7 18 4 18 -10 0 47 137 84 200 41 68 140 179 201
223 72 53 214 113 311 132 122 25 335 34 444 20 148 -19 227 -42 340 -96 90
-45 170 -112 236 -199 l57 -75 712 0 c391 0 713 2 715 5 1 3 -4 28 -12 55
-116 383 -333 660 -676 860 -87 52 -88 53 -55 57 18 3 71 6 118 7 46 1 85 3
86 4 4 3 186 -1 284 -8z m-4236 -1480 c5 -168 9 -208 32 -329 44 -235 161
-476 322 -663 132 -152 284 -267 491 -371 l114 -57 -48 -7 c-76 -11 -126 -17
-185 -23 -30 -4 -68 -8 -85 -10 -181 -24 -689 -24 -811 -1 -12 2 -45 7 -75 11
-117 14 -308 70 -404 118 -129 64 -200 129 -248 226 -29 59 -32 75 -31 151 1
287 269 635 785 1020 74 55 135 96 136 92 1 -4 4 -74 7 -157z"/>
</g>
</svg>
